<svg width="131" height="213" viewBox="0 0 131 213" fill="none" xmlns="http://www.w3.org/2000/svg">
<path d="M117.7 3.5C121.011 3.50008 123.93 4.7611 125.869 7.51465C128.387 10.8075 127.653 14.8338 125.932 18.3291L37.4174 199.768C36.3226 202.163 35.1004 204.279 33.726 206.069L33.724 206.068C31.6958 208.762 28.3194 209.5 25.0981 209.5C21.4809 209.5 18.2552 208.167 16.2826 205.026C14.8951 202.817 13.9423 200.509 13.5121 198.111L13.474 197.899L13.4623 197.684L3.54044 15.1807L3.54141 15.1797C3.34829 12.3161 3.81698 9.53028 5.46622 7.27734C7.4084 4.43432 10.6464 3.5 13.9047 3.5C17.5763 3.50003 21.3836 4.38992 23.4115 7.60352C24.8433 9.51884 25.7556 11.6853 25.7953 14.0566L32.599 162.03L103.857 12.9658L103.886 12.9053L103.917 12.8447C105.366 10.0923 106.957 7.78648 108.763 6.18555L108.839 6.11816L108.918 6.05566C111.298 4.18036 114.395 3.5 117.7 3.5Z" fill="#C9A327" stroke="black" stroke-width="7"/>
</svg>
